# xmcd
#
# Track frame offsets: 
#        150
#        19125
#        37950
#        51525
#        51957
#        54719
#        55094
#        58781
#        59365
#        63308
#        63709
#        65894
#        66194
#        67623
#        67998
#        70585
#        70960
#        75028
#        75403
#        78199
#        78773
#
# Disc length: 1121 seconds
#
# Revision: 2
# Processed by: cddbd v1.5.2PL0 Copyright (c) Steve Scherf et al.
# Submitted via: ExactAudioCopyFreeDBPlugin 1.0
#
DISCID=1f045f15
DTITLE=Mike Krüger - Country Mike and Die Quickborn Cowboys (Promo-CD Si
DTITLE=ngle)
DYEAR=1999
DGENRE=Comedy
TTITLE0=Der Nippel
TTITLE1=Mein Gott, Walther
TTITLE2=Born in Quickborn
TTITLE3=Interview 01
TTITLE4=Interview 02
TTITLE5=Interview 03
TTITLE6=Interview 04
TTITLE7=Interview 05
TTITLE8=Interview 06
TTITLE9=Interview 07
TTITLE10=Interview 08
TTITLE11=Interview 09
TTITLE12=Interview 10
TTITLE13=Interview 11
TTITLE14=Interview 12
TTITLE15=Interview 13
TTITLE16=Interview 14
TTITLE17=Interview 15
TTITLE18=Interview 16
TTITLE19=Interview 17
TTITLE20=Interview 18
EXTD=Promo CD-Single mit Mike Krüger-Interview vom Oktober 1999
EXTT0=
EXTT1=
EXTT2=
EXTT3=
EXTT4=
EXTT5=
EXTT6=
EXTT7=
EXTT8=
EXTT9=
EXTT10=
EXTT11=
EXTT12=
EXTT13=
EXTT14=
EXTT15=
EXTT16=
EXTT17=
EXTT18=
EXTT19=
EXTT20=
PLAYORDER=
